# xmcd
#
# Track frame offsets: 
#        150
#        12674
#        25115
#        38007
#        51247
#        63652
#        77030
#        89577
#        101955
#        113830
#        126161
#        138420
#        150777
#        163857
#        176901
#        188613
#        200329
#        213033
#        225820
#        238024
#        250214
#        262549
#        275290
#        287879
#        300123
#
# Disc length: 4172 seconds
#
# Revision: 0
# Processed by: cddbd v1.5.1PL0 Copyright (c) Steve Scherf et al.
# Submitted via: ExactAudioCopy v0.95a5
#
DISCID=4a104a19
DTITLE=Hank Williams - His greatest hits vol. 1
DYEAR=1900
DGENRE=Country
TTITLE0=HONKY TONKIN'
TTITLE1=MOVE IT ON OVER
TTITLE2=I CAN'T GET YOU OFF MY MIND
TTITLE3=MIND YOUR OWN BUSINESS
TTITLE4=I SAW THE LIGHT
TTITLE5=YOU'RE GONNA CHANGE(OR I'M GONNA LEAVE)
TTITLE6=ROOTIE TOOTIE
TTITLE7=LOVESICK BLUES 
TTITLE8=I'LL BE A BACHELOR TILL I DIE
TTITLE9=LAST NIGHT I HEARD YOU CRYING IN YOUR SLEEP
TTITLE10=THE BLUES COME AROUND
TTITLE11=FLY TROUBLE
TTITLE12=CALLING YOU
TTITLE13=ON THE BANK OF THE OLD PONCHARTRAIN
TTITLE14=A MANSION ON THE HILL
TTITLE15=LOST ON THE RIVER 
TTITLE16=I DON'T CARE
TTITLE17=PAN AMERICAN
TTITLE18=NEVER AGAIN 
TTITLE19=MY LOVE FOR YOU
TTITLE20=MY SWEET LOVE AIN'T AROUND
TTITLE21=THERE'LL BE NO TEARDROPS TONIGHT
TTITLE22=SIX MORE MILES
TTITLE23=LOST HIGHWAY
TTITLE24=I'M A LONG GONE DADDY
EXTD=
EXTT0=
EXTT1=
EXTT2=
EXTT3=
EXTT4=
EXTT5=
EXTT6=
EXTT7=
EXTT8=
EXTT9=
EXTT10=
EXTT11=
EXTT12=
EXTT13=
EXTT14=
EXTT15=
EXTT16=
EXTT17=
EXTT18=
EXTT19=
EXTT20=
EXTT21=
EXTT22=
EXTT23=
EXTT24=
PLAYORDER=
